<svg xmlns="http://www.w3.org/2000/svg" viewBox="0 0 512 512">
  <rect width="512" height="512" rx="96" fill="#2F5D4C"/>
  <path d="M256 72c0 0-40 48-40 88c0 22 18 40 40 40s40-18 40-40c0-40-40-88-40-88z" fill="#DD9C33" opacity="0.6"/>
  <path d="M256 108c-60 72-108 128-108 192c0 72 48 140 108 140s108-68 108-140c0-64-48-120-108-192z" fill="#DD9C33"/>
  <path d="M256 200c-32 44-60 80-60 120c0 44 28 80 60 80s60-36 60-80c0-40-28-76-60-120z" fill="#F5F1E7"/>
  <path d="M256 268c-16 24-32 44-32 68c0 24 14 44 32 44s32-20 32-44c0-24-16-44-32-68z" fill="#2F5D4C"/>
</svg>
